<svg xmlns="http://www.w3.org/2000/svg" version="1.1" xmlns:xlink="http://www.w3.org/1999/xlink" xmlns:svgjs="http://svgjs.dev/svgjs" width="765" height="625" viewBox="0 0 300 300" class="svg-animations " style="background: rgb(31, 23, 23);"><svg viewBox="0 0 130.00096130371094 135" width="50" height="50" style="fill: rgb(90, 237, 131);" x="29.390625" y="125"><svg width="131" height="130" viewBox="0 0 131 130" xmlns="http://www.w3.org/2000/svg">
<path d="M91.3639 9.78445e-06C82.1437 -0.00651941 73.2185 3.25486 66.1737 9.2049C59.13 15.1549 54.4204 23.4077 52.8838 32.4995C51.628 32.4352 50.3701 32.4352 49.1144 32.4995C36.1847 32.4995 23.7849 37.6358 14.641 46.7785C5.49937 55.9213 0.363037 68.3212 0.363037 81.2492V123.5C0.363037 125.224 1.04749 126.878 2.26625 128.097C3.48501 129.316 5.13889 130 6.8627 130H49.1139C57.6714 130 66.0776 127.747 73.489 123.469C80.8996 119.19 87.0541 113.037 91.333 105.625C95.6116 98.2143 97.8642 89.8072 97.8642 81.2497C97.9284 80.1681 97.9284 79.0821 97.8642 78.0005H123.864C125.588 78.0005 127.242 77.3149 128.46 76.0962C129.679 74.8774 130.364 73.2243 130.364 71.4997V39.0014C130.364 28.6571 126.255 18.7374 118.941 11.4238C111.627 4.1101 101.708 0.00115216 91.3634 0.00115216L91.3639 9.78445e-06ZM49.1156 117.001H13.3635V81.2486C13.3809 71.7727 17.1535 62.6898 23.8534 55.9887C30.5545 49.2877 39.6374 45.5161 49.1144 45.4988C50.3919 45.4324 51.6716 45.4324 52.9493 45.4988C61.1095 46.3846 68.7235 50.0312 74.5278 55.8352C80.3322 61.6396 83.9787 69.2535 84.8643 77.4138C84.9306 78.6913 84.9306 79.971 84.8643 81.2486C84.8469 90.7257 81.0751 99.8085 74.3743 106.51C67.6732 113.21 58.5904 116.982 49.1144 117L49.1156 117.001ZM117.366 64.9994H95.0049C92.5967 58.1635 88.6827 51.9567 83.5519 46.8379C78.4212 41.718 72.2065 37.818 65.3653 35.4239C66.004 26.1352 71.5493 17.8922 79.9132 13.8008C88.2768 9.71023 98.1881 10.3916 105.914 15.5887C113.639 20.7857 118.005 29.7098 117.366 38.9997V64.9994Z"></path>
</svg></svg><text fill="#5aed83" font-family="Georgia" font-size="32px" x="89.390625" y="157"><tspan dy="0" x="89.390625">social space</tspan></text><text fill="#55a162" font-family="Times New Roman" font-size="16px" x="175" y="172.20000076293945"><tspan dy="0" x="175"></tspan></text></svg>